<mxfile host="65bd71144e">
    <diagram id="J7m0HLziaFzGGJ3oxKKx" name="Page-1">
        <mxGraphModel dx="2126" dy="1773" grid="1" gridSize="10" guides="1" tooltips="1" connect="1" arrows="1" fold="1" page="1" pageScale="1" pageWidth="827" pageHeight="1169" math="0" shadow="0">
            <root>
                <mxCell id="0"/>
                <mxCell id="1" parent="0"/>
                <mxCell id="2" value="Student" style="swimlane;fontStyle=1;align=center;verticalAlign=top;childLayout=stackLayout;horizontal=1;startSize=26;horizontalStack=0;resizeParent=1;resizeParentMax=0;resizeLast=0;collapsible=1;marginBottom=0;" parent="1" vertex="1">
                    <mxGeometry x="-850" y="194" width="330" height="300" as="geometry"/>
                </mxCell>
                <mxCell id="3" value="- std_id: int&#10;- fname: str&#10;- lname: str&#10;- assignment_scores: dict&#10;- test_score: dict&#10;- final_score: dict&#10;" style="text;strokeColor=none;fillColor=none;align=left;verticalAlign=top;spacingLeft=4;spacingRight=4;overflow=hidden;rotatable=0;points=[[0,0.5],[1,0.5]];portConstraint=eastwest;" parent="2" vertex="1">
                    <mxGeometry y="26" width="330" height="124" as="geometry"/>
                </mxCell>
                <mxCell id="4" value="" style="line;strokeWidth=1;fillColor=none;align=left;verticalAlign=middle;spacingTop=-1;spacingLeft=3;spacingRight=3;rotatable=0;labelPosition=right;points=[];portConstraint=eastwest;strokeColor=inherit;" parent="2" vertex="1">
                    <mxGeometry y="150" width="330" height="8" as="geometry"/>
                </mxCell>
                <mxCell id="5" value="+ __int__(self, std_id, name): None&#10;+ __str__(self): None&#10;+ display(self): None&#10;+ add_assignment_score(self, ass_id, marks): bool&#10;+ update_assignment_score(self, ass_id, marks): bool&#10;+ add_test_score(self, test_id, marks): bool&#10;+ update_test_score(self, test_id, marks): bool&#10;+ calculate_final_score(self): bool" style="text;strokeColor=none;fillColor=none;align=left;verticalAlign=top;spacingLeft=4;spacingRight=4;overflow=hidden;rotatable=0;points=[[0,0.5],[1,0.5]];portConstraint=eastwest;" parent="2" vertex="1">
                    <mxGeometry y="158" width="330" height="142" as="geometry"/>
                </mxCell>
                <mxCell id="20" value="Gradebook" style="swimlane;fontStyle=0;align=center;verticalAlign=top;childLayout=stackLayout;horizontal=1;startSize=26;horizontalStack=0;resizeParent=1;resizeParentMax=0;resizeLast=0;collapsible=1;marginBottom=0;" parent="1" vertex="1">
                    <mxGeometry x="-440" y="229" width="510" height="180" as="geometry"/>
                </mxCell>
                <mxCell id="21" value="- semester: int&#10;- students_grade_list: [Student]" style="text;strokeColor=none;fillColor=none;align=left;verticalAlign=top;spacingLeft=4;spacingRight=4;overflow=hidden;rotatable=0;points=[[0,0.5],[1,0.5]];portConstraint=eastwest;" parent="20" vertex="1">
                    <mxGeometry y="26" width="510" height="44" as="geometry"/>
                </mxCell>
                <mxCell id="22" value="" style="line;strokeWidth=1;fillColor=none;align=left;verticalAlign=middle;spacingTop=-1;spacingLeft=3;spacingRight=3;rotatable=0;labelPosition=right;points=[];portConstraint=eastwest;strokeColor=inherit;" parent="20" vertex="1">
                    <mxGeometry y="70" width="510" height="8" as="geometry"/>
                </mxCell>
                <mxCell id="23" value="+ __int__(self, semester, assignment_weight, test_weight, final_exam_weight)&#10;+ __str__(self): None&#10;+ display(self): None&#10;+ set_assessment_weight(self, assignment_weight, test_weight, final_exam_weight): bool&#10;+ add_student(self, student:Student): bool" style="text;strokeColor=none;fillColor=none;align=left;verticalAlign=top;spacingLeft=4;spacingRight=4;overflow=hidden;rotatable=0;points=[[0,0.5],[1,0.5]];portConstraint=eastwest;" parent="20" vertex="1">
                    <mxGeometry y="78" width="510" height="102" as="geometry"/>
                </mxCell>
                <mxCell id="24" value="Extends" style="endArrow=block;endSize=16;endFill=0;html=1;entryX=0.354;entryY=0.994;entryDx=0;entryDy=0;entryPerimeter=0;exitX=0.43;exitY=-0.009;exitDx=0;exitDy=0;exitPerimeter=0;" parent="1" source="20" target="29" edge="1">
                    <mxGeometry width="160" relative="1" as="geometry">
                        <mxPoint x="-222" y="220" as="sourcePoint"/>
                        <mxPoint x="-250" y="120" as="targetPoint"/>
                    </mxGeometry>
                </mxCell>
                <mxCell id="26" value="GradePolicy (C)" style="swimlane;fontStyle=0;align=center;verticalAlign=top;childLayout=stackLayout;horizontal=1;startSize=26;horizontalStack=0;resizeParent=1;resizeParentMax=0;resizeLast=0;collapsible=1;marginBottom=0;" vertex="1" parent="1">
                    <mxGeometry x="-360" y="-60" width="390" height="180" as="geometry"/>
                </mxCell>
                <mxCell id="27" value="- assignments_weight: int&#10;- tests_weight: int&#10;- final_exam_wieight: int" style="text;strokeColor=none;fillColor=none;align=left;verticalAlign=top;spacingLeft=4;spacingRight=4;overflow=hidden;rotatable=0;points=[[0,0.5],[1,0.5]];portConstraint=eastwest;" vertex="1" parent="26">
                    <mxGeometry y="26" width="390" height="54" as="geometry"/>
                </mxCell>
                <mxCell id="28" value="" style="line;strokeWidth=1;fillColor=none;align=left;verticalAlign=middle;spacingTop=-1;spacingLeft=3;spacingRight=3;rotatable=0;labelPosition=right;points=[];portConstraint=eastwest;strokeColor=inherit;" vertex="1" parent="26">
                    <mxGeometry y="80" width="390" height="8" as="geometry"/>
                </mxCell>
                <mxCell id="29" value="+ __int__(self, assignments_weight, tests_weight, final_exam_weight)&#10;+ __str__(self)&#10;+ display(self)&#10;" style="text;strokeColor=none;fillColor=none;align=left;verticalAlign=top;spacingLeft=4;spacingRight=4;overflow=hidden;rotatable=0;points=[[0,0.5],[1,0.5]];portConstraint=eastwest;" vertex="1" parent="26">
                    <mxGeometry y="88" width="390" height="92" as="geometry"/>
                </mxCell>
                <mxCell id="31" value="" style="endArrow=diamondThin;endFill=0;endSize=24;html=1;" edge="1" parent="1" source="3" target="21">
                    <mxGeometry width="160" relative="1" as="geometry">
                        <mxPoint x="-280" y="250" as="sourcePoint"/>
                        <mxPoint x="-120" y="250" as="targetPoint"/>
                    </mxGeometry>
                </mxCell>
            </root>
        </mxGraphModel>
    </diagram>
</mxfile>